<svg xmlns="http://www.w3.org/2000/svg" viewBox="0 0 213 44" fill-rule="evenodd" clip-rule="evenodd" stroke-linejoin="round" stroke-miterlimit="2"><path fill="none" d="M0 .639h212.41v43H0z"/><clipPath id="a"><path d="M0 .639h212.41v43H0z"/></clipPath><g clip-path="url(#a)" fill="#fff" fill-rule="nonzero"><path d="M51.16 1.349h5.56v41.42h-5.56zM62.82 37.569h14.2c2.41 0 4.16-.44 5.27-1.33 1.1-.89 1.66-2.24 1.66-4.05 0-1.74-.91-3.29-2.72-4.68-.71-.51-1.55-1.03-2.51-1.54-.97-.51-2.2-1.12-3.7-1.83-1.89-.91-3.46-1.71-4.7-2.4-1.24-.69-2.42-1.5-3.52-2.43-1.1-.93-1.99-2.02-2.66-3.28-.67-1.26-1.01-2.68-1.01-4.26 0-3.27 1.05-5.83 3.17-7.66 2.11-1.83 4.84-2.75 8.2-2.75h13.2v5.21h-14c-1.58 0-2.81.42-3.7 1.27-.89.85-1.33 2.06-1.33 3.64 0 1.5.69 2.75 2.07 3.76 1.38 1.01 3.51 2.2 6.39 3.58 1.97.91 3.6 1.72 4.88 2.43 1.28.71 2.49 1.55 3.64 2.51 1.14.97 2.07 2.11 2.78 3.43.71 1.32 1.06 2.83 1.06 4.53 0 3.35-1.01 6.04-3.02 8.05-2.01 2.01-4.83 3.02-8.46 3.02H62.82v-5.22zM94.18 42.769v-26.27c0-2.41.35-4.6 1.07-6.57.71-1.97 1.71-3.65 2.99-5.03 1.28-1.38 2.78-2.44 4.5-3.17 1.72-.73 3.58-1.09 5.59-1.09s3.88.37 5.62 1.09c1.74.73 3.23 1.79 4.5 3.17 1.26 1.38 2.25 3.06 2.96 5.03.71 1.97 1.07 4.16 1.07 6.57v26.27h-5.56v-18.82h-14.91v-5.21h14.91v-2.6c0-3.2-.78-5.71-2.34-7.54-1.56-1.83-3.64-2.75-6.24-2.75s-4.69.92-6.24 2.75c-1.56 1.83-2.34 4.35-2.34 7.54v26.63h-5.58zM162.05 12.119c-2.76-2.29-5.02-3.91-6.78-4.85-1.76-.95-3.96-1.42-6.6-1.42-2.25 0-4.34.41-6.27 1.24-1.93.83-3.62 2-5.06 3.52a16.331 16.331 0 00-3.34 5.24c-.79 1.97-1.18 4.04-1.18 6.21s.39 4.24 1.18 6.21c.79 1.97 1.9 3.71 3.34 5.21s3.13 2.67 5.06 3.52c1.93.85 4.02 1.27 6.27 1.27 1.97 0 3.86-.32 5.65-.95 1.79-.63 3.39-1.54 4.79-2.72 1.4-1.18 2.52-2.62 3.37-4.32.85-1.7 1.31-3.57 1.39-5.62h-14.44v-5.21h20.24v3.55c0 3.2-.6 6.09-1.8 8.67-1.2 2.58-2.83 4.75-4.88 6.51a21.312 21.312 0 01-6.8 3.96c-2.49.89-4.99 1.33-7.52 1.33-2.88 0-5.63-.55-8.25-1.66a22.14 22.14 0 01-6.95-4.59 21.311 21.311 0 01-4.73-6.86 20.613 20.613 0 01-1.72-8.31c0-2.92.57-5.69 1.72-8.31 1.14-2.62 2.72-4.91 4.73-6.86a22.49 22.49 0 016.95-4.59c2.62-1.1 5.37-1.66 8.25-1.66 3.51 0 6.56.56 9.14 1.69 2.58 1.12 5.24 3.05 7.96 5.77l-3.72 4.03zM201.96 42.689l-7.6-.01-11.66-15.53v-5.21h5.92c2.25 0 4.09-.72 5.53-2.16 1.44-1.44 2.16-3.38 2.16-5.83 0-2.49-.76-4.46-2.28-5.92-1.51-1.46-3.44-2.19-5.76-2.19-2.25 0-4.11.77-5.57 2.31s-2.19 3.61-2.19 6.21v28.41h-5.56v-27.7c0-2.16.35-4.15 1.04-5.94.69-1.8 1.65-3.33 2.9-4.59 1.24-1.26 2.66-2.23 4.26-2.9 1.59-.67 3.28-1 5.06-1 2.05 0 3.92.35 5.62 1.06 1.69.71 3.14 1.69 4.35 2.93 1.2 1.24 2.12 2.67 2.75 4.29.63 1.62.95 3.29.95 5.03 0 1.78-.3 3.47-.89 5.09-.59 1.62-1.42 3.03-2.49 4.23a11.86 11.86 0 01-3.73 2.84 10.29 10.29 0 01-4.55 1.04h-.17l11.91 15.54zM206.85 1.349h5.56v41.42h-5.56zM36.67 1.569H4.69C2.11 1.569 0 3.679 0 6.259v31.98c0 2.58 2.11 4.69 4.69 4.69h31.98c2.58 0 4.69-2.11 4.69-4.69V6.259c0-2.58-2.11-4.69-4.69-4.69zm-12.1 4.82l2.02-2.8c.29-.4.92-.25 1 .24l.76 4.77c.08.48-.47.82-.87.54l-2.78-1.97a.56.56 0 01-.13-.78zM9.4 7.399c.22-.2.49-.33.79-.38.43-.07.86.04 1.23.29.99.7 1.28.89 1.54 1.06.27.18.5.33 1.58 1.11 2.35 1.71 4.25 3.09 6.15 4.48 1.88 1.37 3.75 2.74 6.05 4.41.08.06.16.12.27.2l.24.18c.24.17.44.33.64.49l1.39 1.04.12.1c.33.26.55.64.61 1.08.12.93-.41 1.63-1.35 1.78h-.03c-.44.06-.86-.04-1.19-.29l-.41-.31-.01.01-3.58-2.69-.19-.15c-.77-.58-1.67-1.26-2.56-1.91-2.51-1.83-3.89-2.82-5.24-3.79-1.44-1.03-2.83-2.03-5.5-3.98-.29-.19-.68-.52-.91-.92-.31-.53-.14-1.36.36-1.81zm-6.58 2.45c.22-.2.49-.33.79-.38.43-.07.86.04 1.23.29.97.69 1.27.89 1.53 1.06.28.18.51.34 1.59 1.12 2.23 1.62 5.05 3.65 7.89 5.71 0 0 5.33 3.85 7.32 5.29l1.31.95c.07.05.14.11.23.18l.28.21c.24.17.44.33.64.49l1.39 1.04.12.1c.34.26.55.64.61 1.08.12.93-.41 1.62-1.35 1.78h-.03a1.6 1.6 0 01-1.19-.29l-.4-.3-.01.01-3.59-2.7-.19-.15c-.77-.58-1.67-1.26-2.56-1.91-2.57-1.87-5.12-3.69-7.36-5.29-2.48-1.77-5.05-3.6-7.7-5.54-.28-.21-.67-.54-.91-.94-.3-.52-.14-1.35.36-1.81zm-.36 6.68c.22-.2.49-.33.79-.38.43-.07.86.04 1.23.29.99.7 1.28.89 1.54 1.06.27.18.51.33 1.58 1.11 2.36 1.71 4.26 3.1 6.16 4.49 1.86 1.36 3.74 2.73 6.04 4.4.08.05.15.11.24.18l.26.2c.24.17.44.33.64.49l1.39 1.03.12.1c.34.26.55.64.61 1.08.12.93-.41 1.63-1.35 1.78h-.03a1.6 1.6 0 01-1.19-.29l-.4-.3-.01.01-3.59-2.7-.19-.15c-.95-.72-1.75-1.32-2.56-1.91-2.51-1.83-3.89-2.82-5.24-3.79-1.44-1.03-2.83-2.03-5.5-3.98-.28-.18-.67-.51-.9-.91-.31-.53-.15-1.36.36-1.81zm30.37 22.12c-1.48.9-3.1 1.49-4.83 1.77-3.54.56-7.24-.32-10.14-2.41l-3.16-2.29c-3.78-2.74-7.7-5.56-11.53-8.41-.6-.44-1.13-1.18-1.34-1.86-.22-.69.33-1.28.86-1.58.22-.12.45-.21.66-.24.48-.08.97.07 1.46.43l2.9 2.1c1.47 1.07 2.94 2.14 4.42 3.21.78.57 1.57 1.14 2.35 1.71 1.92 1.4 3.87 2.83 5.83 4.17 2.09 1.43 4.61 2 7.11 1.6 2.6-.41 4.88-1.81 6.43-3.94 3.22-4.41 2.39-10.42-1.9-13.7-1.79-1.37-3.65-2.71-5.45-4l-.17-.13-2.7-1.95c-1.49-1.09-2-2.78-1.28-4.29.25-.54.41-.62.47-.63.05-.01.22 0 .62.29.88.64 1.77 1.27 2.66 1.91 2.72 1.95 5.49 3.93 8.15 5.96 2.7 2.06 4.39 4.93 5 8.54.85 5.55-1.61 10.82-6.42 13.74z"/></g></svg>